<svg xmlns="http://www.w3.org/2000/svg" width="1000" height="1000" viewBox="0 0 1000 1000"><rect width="920" height="920" x="40" y="40" fill="none" stroke="#89d4e5" stroke-miterlimit="10" stroke-width="28" rx="72.1"/><rect width="920" height="920" x="40" y="40" fill="none" stroke="#89d4e5" stroke-miterlimit="10" stroke-width="28" rx="72.1"/><rect width="920" height="920" x="40" y="40" fill="none" stroke="#89d4e5" stroke-miterlimit="10" stroke-width="28" rx="72.1"/><rect width="920" height="920" x="40" y="40" fill="none" stroke="#89d4e5" stroke-miterlimit="10" stroke-width="28" rx="72.1"/><rect width="920" height="920" x="40" y="40" fill="none" stroke="#89d4e5" stroke-miterlimit="10" stroke-width="28" rx="72.1"/><path fill="#89d4e5" d="M507.7 40h380.2a72.1 72.1 0 0 1 72.1 72.1v72.1H507.7V40zm363 526.6a10.8 10.8 0 0 0-6.8-5.2c-9.8-2.4-21.8 4.3-35.6 12.5s-26.4 15.7-36.9 14.7-25.1-11.3-24.7-18.2c.5-10.3 14-22.4 23.8-31.3 3-2.7 5.8-5.2 8.2-7.5l4.2-4.2c12.9-12.8 26.3-25.9 37.4-41.3.1-.3 20.7-31.5 15.4-41.8l-3.2-8h-5.4c-8.4 0-20.4 9.4-42.6 22.2s-51 30.8-74.4 36.2c2.6-12.4 5.4-23.2 8.9-34.4s9.2-25.9 14.8-40.5c17-44.9 20-55.8 12.2-61.5l-2.8-4.1h-2.9c-7.7 0-15 8.9-74.8 77.7-18.3 21.1-40.3 47.7-50.3 57.4-21.7-24.2-33.1-53.8-45.2-85.7-9-23.9-18.4-48.3-32.5-70.4-26.1-40.8-63.4-64.9-99.8-64.9h-2.3c-12.9.3-21.4 6.8-28.2 12-4.5 3.4-8.3 6.3-12.5 7.2-8.7 1.8-18.2-4.1-28.2-10.4s-20-12.7-31.6-12.7a30.4 30.4 0 0 0-7.3.9c-16.4 4.2-24.5 19.2-31.7 32.4-10 18.4-16.8 28.2-33.9 24a75.5 75.5 0 0 0-18.4-2.5c-27.1 0-37.5 19.2-46.6 36.2-6.7 12.3-13.6 25.1-25.7 32.4-.9.3-2.5.6-4.5 1-12.6 2.5-35.2 7.5-41.8 23.4-5.3 12.7 5.5 29.9 5.6 30.3 4.7 10.6 9.4 21.5 6.9 31.8-3.2 13.3-11.9 22.9-18.8 30.7S127 518 127 525.4c0 13.9 10.7 22.9 21 31.5 6.9 5.8 14 11.7 18.5 19.2 5.8 9.4 5.3 19.2 4.7 30.5a150.4 150.4 0 0 0-.3 15.1c1.4 36.1 33.5 40 57 42.9l9.8 1.3a98.6 98.6 0 0 1 1.7 10.2c1.4 10.4 3 22.3 13 32.7 11.6 11.8 25.3 13 37.4 14.1l5.7.5c1 3.2 2.1 9 2.9 13.2 2.8 15.2 5.8 31 15.6 37.1 7.5 4.8 23 7.8 47.8 8.8 21.9.9 62.1 8.8 71.5 10s16.9 2.2 25.1 3.8c32.9 6.1 86.4 12.8 129.5 18.2 22.2 2.7 48.3-.2 80.5-9.3 9.1-2.6 18.1-6 26.9-9.2 5.6-2.2 11.2-4.3 16.8-6.1l12.8-4.3-9-10c-15.4-17-30.6-40.3-27.7-51.4.3-1.1 1.1-4.1 7.3-6.2 26-8.6 59.8 30.9 76.7 51.2l9.6 11.5 6.5-10.2c6.2-9.6 13.6-18.4 21.5-27.6 9.4-10.9 19-22.1 26.6-35.2 12.6-21.9 18.9-45.5 24.8-69.9l.7-2.6c14.1-53.3 11.9-63.4 8.8-68.6zm-278.6 38.9a23.9 23.9 0 1 1 23.8-23.9 23.9 23.9 0 0 1-23.8 23.9z"/></svg>