<svg xmlns="http://www.w3.org/2000/svg"><symbol id="favicon-196" viewBox="0 0 1000 1000"><rect width="920" height="920" x="40" y="40" fill="none" stroke="#89d4e5" stroke-miterlimit="10" stroke-width="28" rx="72.1"/><rect width="920" height="920" x="40" y="40" fill="none" stroke="#89d4e5" stroke-miterlimit="10" stroke-width="28" rx="72.1"/><rect width="920" height="920" x="40" y="40" fill="none" stroke="#89d4e5" stroke-miterlimit="10" stroke-width="28" rx="72.1"/><rect width="920" height="920" x="40" y="40" fill="none" stroke="#89d4e5" stroke-miterlimit="10" stroke-width="28" rx="72.1"/><rect width="920" height="920" x="40" y="40" fill="none" stroke="#89d4e5" stroke-miterlimit="10" stroke-width="28" rx="72.1"/><path fill="#89d4e5" d="M507.7 40h380.2a72.1 72.1 0 0 1 72.1 72.1v72.1H507.7V40zm363 526.6a10.8 10.8 0 0 0-6.8-5.2c-9.8-2.4-21.8 4.3-35.6 12.5s-26.4 15.7-36.9 14.7-25.1-11.3-24.7-18.2c.5-10.3 14-22.4 23.8-31.3 3-2.7 5.8-5.2 8.2-7.5l4.2-4.2c12.9-12.8 26.3-25.9 37.4-41.3.1-.3 20.7-31.5 15.4-41.8l-3.2-8h-5.4c-8.4 0-20.4 9.4-42.6 22.2s-51 30.8-74.4 36.2c2.6-12.4 5.4-23.2 8.9-34.4s9.2-25.9 14.8-40.5c17-44.9 20-55.8 12.2-61.5l-2.8-4.1h-2.9c-7.7 0-15 8.9-74.8 77.7-18.3 21.1-40.3 47.7-50.3 57.4-21.7-24.2-33.1-53.8-45.2-85.7-9-23.9-18.4-48.3-32.5-70.4-26.1-40.8-63.4-64.9-99.8-64.9h-2.3c-12.9.3-21.4 6.8-28.2 12-4.5 3.4-8.3 6.3-12.5 7.2-8.7 1.8-18.2-4.1-28.2-10.4s-20-12.7-31.6-12.7a30.4 30.4 0 0 0-7.3.9c-16.4 4.2-24.5 19.2-31.7 32.4-10 18.4-16.8 28.2-33.9 24a75.5 75.5 0 0 0-18.4-2.5c-27.1 0-37.5 19.2-46.6 36.2-6.7 12.3-13.6 25.1-25.7 32.4-.9.3-2.5.6-4.5 1-12.6 2.5-35.2 7.5-41.8 23.4-5.3 12.7 5.5 29.9 5.6 30.3 4.7 10.6 9.4 21.5 6.9 31.8-3.2 13.3-11.9 22.9-18.8 30.7S127 518 127 525.4c0 13.9 10.7 22.9 21 31.5 6.9 5.8 14 11.7 18.5 19.2 5.8 9.4 5.3 19.2 4.7 30.5a150.4 150.4 0 0 0-.3 15.1c1.4 36.1 33.5 40 57 42.9l9.8 1.3a98.6 98.6 0 0 1 1.7 10.2c1.4 10.4 3 22.3 13 32.7 11.6 11.8 25.3 13 37.4 14.1l5.7.5c1 3.2 2.1 9 2.9 13.2 2.8 15.2 5.8 31 15.6 37.1 7.5 4.8 23 7.8 47.8 8.8 21.9.9 62.1 8.8 71.5 10s16.9 2.2 25.1 3.8c32.9 6.1 86.4 12.8 129.5 18.2 22.2 2.7 48.3-.2 80.5-9.3 9.1-2.6 18.1-6 26.9-9.2 5.6-2.2 11.2-4.3 16.8-6.1l12.8-4.3-9-10c-15.4-17-30.6-40.3-27.7-51.4.3-1.1 1.1-4.1 7.3-6.2 26-8.6 59.8 30.9 76.7 51.2l9.6 11.5 6.5-10.2c6.2-9.6 13.6-18.4 21.5-27.6 9.4-10.9 19-22.1 26.6-35.2 12.6-21.9 18.9-45.5 24.8-69.9l.7-2.6c14.1-53.3 11.9-63.4 8.8-68.6zm-278.6 38.9a23.9 23.9 0 1 1 23.8-23.9 23.9 23.9 0 0 1-23.8 23.9z"/></symbol><symbol id="cctv" viewBox="0 0 1280 720"><path fill="#828487" d="M0 0h1280v720H0z"/><path fill="#c4c6c8" d="M0 0h1280v540H0z"/><path fill="#9d9fa2" d="M0 0h1280v180H0z"/><path fill="#a9abae" d="M0 360h1280v180H0z"/><path fill="#ee3354" d="M367.7 379.3l-12.5-38.4h5.4l5.9 18.9a146.7 146.7 0 0 1 4.1 14.4h.2c1-4.5 2.6-9.3 4.3-14.4l6.5-18.9h5.3l-13.7 38.4zm27.9-35.4a3 3 0 0 1-3.2 3.1 3.1 3.1 0 0 1 .1-6.2 3 3 0 0 1 3.1 3.1zm-5.6 35.4v-27.6h5v27.6zm37.2-40.5v33.4c0 2.4 0 5.2.2 7.1h-4.5l-.2-4.8h-.1a10.2 10.2 0 0 1-9.4 5.4c-6.7 0-11.8-5.6-11.8-14s5.6-14.8 12.3-14.8c4.3 0 7.1 2 8.4 4.2h.1v-16.5zm-5 24.1a7.6 7.6 0 0 0-.3-2.1 7.2 7.2 0 0 0-7.2-5.8c-5.2 0-8.3 4.6-8.3 10.7s2.8 10.2 8.2 10.2a7.5 7.5 0 0 0 7.3-6 7.8 7.8 0 0 0 .3-2.2zm16.1 3.5c.1 6.8 4.5 9.6 9.5 9.6a19.7 19.7 0 0 0 7.6-1.4l.9 3.5a22.2 22.2 0 0 1-9.2 1.8c-8.5 0-13.6-5.6-13.6-14s4.9-14.8 13-14.8 11.4 7.9 11.4 13c0 1-.2 1.8-.2 2.3zm14.7-3.6c.1-3.2-1.3-8.1-6.9-8.1s-7.3 4.6-7.7 8.1zm36 2.5c0 10.2-7 14.6-13.7 14.6s-13.2-5.5-13.2-14.2 6-14.6 13.7-14.6 13.2 5.7 13.2 14.2zm-21.8.2c0 6.1 3.4 10.6 8.3 10.6s8.4-4.5 8.4-10.7c0-4.6-2.3-10.6-8.3-10.6s-8.4 5.5-8.4 10.7zm40.8 13.8v-23.8h-3.9v-3.8h3.9v-1.3c0-3.9.8-7.4 3.2-9.7a9.5 9.5 0 0 1 6.7-2.5 11.7 11.7 0 0 1 4.3.8l-.7 3.9a6.9 6.9 0 0 0-3.2-.7c-4.3 0-5.4 3.8-5.4 8v1.5h6.7v3.8h-6.7v23.8zm18.2-12.9c.1 6.8 4.4 9.6 9.4 9.6a20.3 20.3 0 0 0 7.7-1.4l.8 3.5a22.2 22.2 0 0 1-9.2 1.8c-8.5 0-13.5-5.6-13.5-14s4.9-14.8 12.9-14.8 11.4 7.9 11.4 13a12.1 12.1 0 0 1-.2 2.3zm14.7-3.6c0-3.2-1.3-8.1-7-8.1s-7.3 4.6-7.7 8.1zm13.8 3.6c.1 6.8 4.5 9.6 9.5 9.6a19.7 19.7 0 0 0 7.6-1.4l.9 3.5a22.2 22.2 0 0 1-9.2 1.8c-8.5 0-13.6-5.6-13.6-14s4.9-14.8 13-14.8 11.4 7.9 11.4 13a12.1 12.1 0 0 1-.2 2.3zm14.7-3.6c.1-3.2-1.3-8.1-6.9-8.1s-7.3 4.6-7.7 8.1zm34.9-24v33.4c0 2.4.1 5.2.2 7.1H600l-.2-4.8h-.1a10.1 10.1 0 0 1-9.4 5.4c-6.7 0-11.8-5.6-11.8-14s5.6-14.8 12.4-14.8c4.2 0 7 2 8.3 4.2h.1v-16.5zm-5 24.1a14.9 14.9 0 0 0-.2-2.1 7.4 7.4 0 0 0-7.3-5.8c-5.2 0-8.2 4.6-8.2 10.7s2.7 10.2 8.1 10.2a7.6 7.6 0 0 0 7.4-6 15 15 0 0 0 .2-2.2zm25.4-3.7c0-2.9 0-5.2-.2-7.5h4.4l.3 4.6h.1a10.1 10.1 0 0 1 9.2-5.2c3.8 0 9.7 2.2 9.7 11.7v16.5h-5v-15.9c0-4.5-1.7-8.2-6.4-8.2a7.1 7.1 0 0 0-6.7 5.2 5.3 5.3 0 0 0-.4 2.3v16.6h-5zm56.6 6.1c0 10.2-7 14.6-13.7 14.6s-13.2-5.5-13.2-14.2 6-14.6 13.6-14.6 13.3 5.7 13.3 14.2zm-21.9.2c0 6.1 3.5 10.6 8.4 10.6s8.4-4.5 8.4-10.7c0-4.6-2.3-10.6-8.3-10.6s-8.5 5.5-8.5 10.7zm34.3-21.7v7.9h7.2v3.8h-7.2v14.9c0 3.4 1 5.3 3.8 5.3a10.7 10.7 0 0 0 2.9-.3l.2 3.8a12.4 12.4 0 0 1-4.5.7 6.9 6.9 0 0 1-5.4-2.2c-1.4-1.4-1.9-3.9-1.9-7.1v-15.1h-4.3v-3.8h4.3v-6.6zm25.4 35.5v-23.8h-3.9v-3.8h3.9v-1.3c0-3.9.9-7.4 3.2-9.7a9.7 9.7 0 0 1 6.7-2.5 11.7 11.7 0 0 1 4.3.8l-.7 3.9a6.3 6.3 0 0 0-3.2-.7c-4.2 0-5.3 3.8-5.3 8v1.5h6.7v3.8h-6.7v23.8zm40.4-14c0 10.2-7.1 14.6-13.8 14.6s-13.2-5.5-13.2-14.2 6.1-14.6 13.7-14.6 13.3 5.7 13.3 14.2zm-21.9.2c0 6.1 3.5 10.6 8.4 10.6s8.4-4.5 8.4-10.7c0-4.6-2.4-10.6-8.3-10.6s-8.5 5.5-8.5 10.7zm51.3 6.3c0 2.8.1 5.3.2 7.5h-4.4l-.3-4.5h-.1a10.4 10.4 0 0 1-9.1 5.1c-4.4 0-9.6-2.4-9.6-12.1v-16.1h5.1V367c0 5.2 1.6 8.7 6.1 8.7a7.2 7.2 0 0 0 6.6-4.5 7.5 7.5 0 0 0 .5-2.6v-16.9h5zm8.3-12.6c0-2.9 0-5.2-.2-7.5h4.4l.3 4.6h.1a10.1 10.1 0 0 1 9.2-5.2c3.8 0 9.7 2.2 9.7 11.7v16.5h-5v-15.9c0-4.5-1.7-8.2-6.4-8.2a7.1 7.1 0 0 0-6.7 5.2 7.3 7.3 0 0 0-.4 2.3v16.6h-5zm55.5-20.4v33.4c0 2.4 0 5.2.2 7.1h-4.5l-.2-4.8h-.1a10.2 10.2 0 0 1-9.4 5.4c-6.7 0-11.8-5.6-11.8-14s5.6-14.8 12.3-14.8c4.3 0 7.1 2 8.4 4.2h.1v-16.5zm-5 24.1a7.6 7.6 0 0 0-.3-2.1 7.2 7.2 0 0 0-7.2-5.8c-5.2 0-8.3 4.6-8.3 10.7s2.8 10.2 8.2 10.2a7.5 7.5 0 0 0 7.3-6 7.8 7.8 0 0 0 .3-2.2z"/></symbol><symbol id="island-map" viewBox="0 0 2000 2000"><g fill="none" stroke="#89d4e5" stroke-miterlimit="10" stroke-width="10"><path d="M416.5 351.2c-8.7 3.8-17.7 8.2-22.9 16.2-12.6 19.2 3.9 44.2 21.5 59.2s39 31.8 37.3 54.8c-1.9 26.3-34.7 45.6-29.6 71.6 3.4 17.3 21.8 26.4 37.2 34.8a243.4 243.4 0 0 1 111.1 127.6c3.5 9.4 6.5 19.6 4.5 29.4-2.6 12.9-13 22.5-22.9 31.2-68.8 60.6-144.7 124.3-236.2 130.6-40.6 2.7-93.5.5-108.2 38.5-4.3 11.2-3.7 23.7-5.2 35.6-4.6 37.4-28.6 68.9-47.5 101.4-46.5 79.9-64.8 175.8-51.2 267.2 4 26.7 10.6 53.1 11.5 80.2 1.8 57.5-22.7 113.6-20.7 171.1s51 122.1 106 105c30.9-9.6 50.8-41.5 81.7-51 16.4-5 34-3.1 51.1-1.1 58.2 6.7 117.3 13.6 171.5 35.9s102.7 60.3 155.1 88.8c132.8 72.3 289.7 83 440.9 84.3 100.2.8 202.5-2.2 297-35.5s181.5-102.1 213.5-197.1c4.3-12.6 7.5-26.4 3.3-39s-14.4-21.5-24.6-29.7a963.5 963.5 0 0 0-96.5-68.7c-23.6-14.7-50.5-32.2-54.1-59.9-2.6-19.3 7.6-38 18.5-54.2a388.2 388.2 0 0 1 145.2-127.6c77.7-39.3 171.2-54 231.9-116.5 49.5-50.9 67.6-125.1 69.2-196.1s-11.2-141.4-14-212.4c-1.5-36.3-.4-73.1-9.6-108.3-24.5-93.7-114.9-153.4-202-195.6s-182.8-79.6-240.3-157.5c-16.6-22.6-29.7-48.1-50.1-67.3-34.5-32.5-84.6-41.8-131.9-45.9-60.4-5.2-122.5-4.1-180.1 15.1S966.6 224.8 941.4 280c-12.4 27.2-21.1 60.9-48.7 72.4s-59.1-7.2-80.4-28.6-41-47.6-70.1-55.7-67.9 17.8-57 46c1.8 4.7 4.9 9.3 3.9 14.3s-9.3 7.3-10.5 2.4c0 0-176.9-16.6-262.1 20.4z"/><path d="M1361.2 256.5c-57.1-41.2-128.7-62.6-198.9-57.5s-138.6 36.9-186.3 88.7c-24.4 26.4-43.8 58-72.4 79.8-22.6 17.2-50.9 28.3-66.7 51.9-26.8 39.8-6 92.5-.8 140.2A205.6 205.6 0 0 1 808 687.1c-26.1 43.2-68 76.5-87.2 123.2-8 19.5-11.5 42.4-2.5 61.5 5.8 12.1 16 21.5 26.4 30.1a424 424 0 0 0 137.5 75.5c83.5 27.4 177.3 29.7 249.7 79.5 45.9 31.6 78.3 79.3 122.7 113 60.3 45.8 139.2 62.1 214.8 58.3s149.2-26.2 220.5-51.5c26.8-9.5 53.9-19.8 75.4-38.3 27.1-23.5 42.2-57.6 56.3-90.5 25.6-59.7 51.1-122.9 43.8-187.4-4.2-37.3-19.2-72.4-34-106.9q-28.8-67.1-57.5-134c-11.1-25.8-22.6-52.2-41.5-72.9-38-41.5-97.8-52.5-148.8-76.3-26.2-12.2-51.5-28.9-66.6-53.6-7.8-12.8-12.5-27.3-19.8-40.4-10.6-19.1-26.2-35-42.7-49.3-33-28.5-93.3-70.6-93.3-70.6z"/><path d="M1225.5 229.7c-81.1-.5-151.9 51.6-216 101.2-46.1 35.7-94.3 74.2-115.2 128.6-7 18.3-10.6 37.6-14.1 56.9l-43.4 234.7c-1.4 7.2-2.6 15.1.9 21.5s8.9 8.8 14.5 11.8c40.6 21.4 81.3 43 124.3 59 50.4 18.8 106 31.1 144.4 68.8 15.7 15.3 27.5 34 40.3 51.7 62.7 86.8 152.9 153.4 254.3 188 82.9 28.2 178.2 34 255.3-7.5 40.4-21.8 73.7-55.5 98.9-93.9 32.4-49.3 52.1-106.7 59-165.3 4.4-37.1 3.5-76.2-12.9-109.8-12.8-26.3-34.2-47.4-56.9-65.9-96.3-78.1-221.6-115.8-313-199.7-41.6-38.3-74.9-85.3-101-135.5-18.5-35.5-33.9-73.4-59.8-103.9s-59.6-40.7-59.6-40.7z"/><path d="M1207.9 259.4a486.5 486.5 0 0 0-222.5 114.9 214 214 0 0 0-20.1 20.3c-16.6 19.7-27.5 43.6-37 67.6a839.3 839.3 0 0 0-57.6 260.2c-.5 8.1-.8 16.6 2.3 24.1 5.8 14 21.4 20.7 35.6 26.2 23.4 8.9 47 17.9 71.9 21.4 50.7 7 102.9-9.6 153.1.8 69.4 14.3 117.3 75.5 174.2 117.9 82.8 61.6 193.2 84.6 293.7 61 44.1-10.3 89.1-31.8 110.5-71.7 11-20.5 14.8-44.1 15.6-67.3.4-10.2.1-20.8-4.7-29.8s-15.8-16.6-25.8-22.3c-68.5-38.4-145.5-61.4-209.4-106.9-103.4-73.7-159.4-196.5-197.8-317.5-7.7-24.4-15.2-49.6-30.9-69.8s-51.1-29.1-51.1-29.1z"/><path d="M1132.2 310.1c-22.4 16.5-40 38.5-60.5 57.3-34.6 31.9-77.7 54.8-107 91.6-39.2 49.4-47.7 115.6-54.7 178.2-3.5 31-5.6 66.4 16 88.9 18.7 19.4 48.3 21.9 75.2 23.2l228 11c27.2 1.3 57.5 1.5 77.6-16.9 15.5-14.3 20.7-36.2 25.3-56.7 3.5-16.2 7-33.6 1.1-49.1-5.4-13.9-17.5-23.9-27.5-35-41.4-45.8-47.6-113.9-39-175.1 2.7-19.1 6.5-39.4-1.2-57.1-4.5-10.1-12.2-18.3-19.9-26.2-20.2-21.1-30.1-66-60.6-63.3s-30.3 12.8-52.8 29.2z"/><path d="M1103.3 371.7c-13.8 21.3-22.1 45.5-33.1 68.3-30.1 62.3-81.2 114.8-98.3 181.8-2.8 10.9-4.5 23.3 1.5 32.9s18.3 13.6 29.5 16.4a997.3 997.3 0 0 0 189 29.8c15.9.9 35.3-.4 42.7-14.5 4.6-8.8 2.6-19.4 3.6-29.3s5.4-19.8 7-30c3.2-21.9-6.8-43.3-13.7-64.3a238.7 238.7 0 0 1-7-121.5c3.4-16.6 8.6-33 9.1-50s-4.6-35.2-18-45.5c-20.5-15.9-98.5 4.7-112.3 25.9z"/><path d="M1128.7 420.2a219 219 0 0 0-22.6 42.8c-15 37.9-20 81-45.8 112.6-9.6 11.9-22.7 24.2-20.4 39.3 1.6 10 10.1 17.9 19.7 21.5s19.9 3.8 30.1 3.9l60.5.8c6.2.1 12.6.1 18.3-2.2s11.1-7.8 15.4-13.1c11-13.7 20-29.4 23-46.7 10.8-61.8-55.6-117.9-43.9-179.4-15.2-3.9-34.3 20.5-34.3 20.5z"/><path d="M1133.5 504.7a92.7 92.7 0 0 0-37.5 46c-8.1 21.4-4.9 50.8 16 60.3 15 7 33.8.1 44.2-12.8s13.5-30.3 12.9-46.9-6.6-35.5-21.7-42.8a48.5 48.5 0 0 0-13.9-3.8z"/></g><path fill="#89d4e5" d="M147.9 129.8l36.9 1.6-21.3 30.1-1.6 36.8-30.1-21.2-36.8-1.6 21.2-30.1L95 73.6l52.9 56.2z"/><path fill="#fdd31b" d="M1612 1576.3l45.3 6.2-32.5 32.2 8.2 44.9-40.7-20.9-40.2 21.7 7.3-45.1-33-31.6 45.1-7 19.9-41.2 20.6 40.8z"/><path fill="#ee3354" d="M761.9 1383.8l-61-105.7a23.1 23.1 0 0 0-40 0l-61 105.7a23.1 23.1 0 0 0 20 34.6h122c17.8 0 28.9-19.3 20-34.6zm-68.5-81.1l-.9 21.4-3.4 37.5h-16.3l-3.5-37.5-.9-21.4zm-12.5 98.9c-9.2 0-15.9-6.8-15.9-16.1s6.6-15.8 15.9-15.8 16 6.5 16 15.8-6.7 16.1-16 16.1z"/></symbol><symbol id="stats" viewBox="0 0 1000 1000"><path fill="#89d4e5" d="M37.9 825a17.4 17.4 0 0 0 8.6 2.4c4.9 0 7.8-2.5 7.8-6.3s-2-5.4-7-7.4-9.8-5.2-9.8-10.5 4.8-10 12-10a17.4 17.4 0 0 1 8.2 1.8l-1.3 3.9a14.7 14.7 0 0 0-7.1-1.8c-5 0-7 3.1-7 5.6s2.3 5.2 7.4 7.1 9.5 5.5 9.5 10.9-4.3 10.7-13 10.7c-3.6 0-7.5-1-9.5-2.4zm49.9-1.4c0 2.7.1 5.2.2 7.2h-4.3l-.2-4.3h-.2a10 10 0 0 1-8.8 5c-4.1 0-9.1-2.4-9.1-11.7v-15.6h4.8V819c0 5 1.5 8.4 5.9 8.4a6.9 6.9 0 0 0 6.4-4.4 6.4 6.4 0 0 0 .5-2.4v-16.4h4.8zm125.3-9c-.3-5.2-.6-11.4-.6-16h-.1c-1.3 4.3-2.8 8.9-4.7 14l-6.5 18h-3.7l-6-17.6c-1.7-5.2-3.2-10-4.2-14.4h-.2c-.1 4.6-.3 10.8-.7 16.4l-1 15.8h-4.5l2.6-37h6.1l6.3 17.9c1.5 4.6 2.8 8.6 3.7 12.5h.2a122.2 122.2 0 0 1 3.9-12.5l6.6-17.9h6.1l2.3 37H214zm37.2 2.7c0 9.9-6.8 14.2-13.2 14.2s-12.8-5.3-12.8-13.7 5.8-14.2 13.2-14.2 12.8 5.6 12.8 13.7zm-21.1.3c0 5.8 3.3 10.2 8.1 10.2s8.1-4.3 8.1-10.3c0-4.5-2.3-10.2-8-10.2s-8.2 5.2-8.2 10.3zm103-19.7h-11.3v-4.1h27.4v4.1H337v32.9h-4.8zm39.9 25.7c0 2.7 0 5.2.2 7.2H368l-.3-4.3h-.1a10 10 0 0 1-8.8 5c-4.1 0-9.2-2.4-9.2-11.7v-15.6h4.9V819c0 5 1.5 8.4 5.9 8.4a6.9 6.9 0 0 0 6.4-4.4 6.4 6.4 0 0 0 .4-2.4v-16.4h4.9zm102.3 7.2l-9.4-37h5.1l4.4 18.7c1.1 4.7 2.1 9.3 2.8 12.8h.1c.6-3.6 1.7-8 3-12.8l4.9-18.7h5l4.5 18.8a114.8 114.8 0 0 1 2.6 12.7h.1c.8-4.1 1.9-8.2 3-12.8l4.9-18.7h4.9l-10.5 37h-5l-4.7-19.3c-1.1-4.7-1.9-8.3-2.4-12h-.1a119.8 119.8 0 0 1-2.9 12l-5.3 19.3zm41.2-12.4c.1 6.6 4.3 9.3 9.1 9.3a17 17 0 0 0 7.4-1.4l.8 3.4a20.7 20.7 0 0 1-8.8 1.7c-8.2 0-13.1-5.4-13.1-13.4s4.7-14.4 12.5-14.4 11 7.7 11 12.6a10.9 10.9 0 0 1-.2 2.2zm14.2-3.4c.1-3.1-1.3-7.9-6.7-7.9s-7 4.5-7.4 7.9zm88.9-17.1h-11.3v-4.1h27.5v4.1h-11.4v32.9h-4.8zm19.7-6.1h4.9v16.6h.1a8.8 8.8 0 0 1 3.5-3.4 10 10 0 0 1 4.9-1.4c3.6 0 9.3 2.2 9.3 11.4v15.8h-4.8v-15.2c0-4.3-1.6-8-6.2-8a7 7 0 0 0-6.5 4.9 5.4 5.4 0 0 0-.3 2.3v16h-4.9zm116.5 2h20v4h-15.2v12.3h14v4h-14v16.7h-4.8zm25.2 18.7c0-3.1 0-5.8-.2-8.3h4.2l.2 5.3h.2c1.2-3.6 4.1-5.9 7.4-5.9l1.4.2v4.6l-1.7-.2c-3.4 0-5.8 2.6-6.5 6.2a15.2 15.2 0 0 0-.2 2.3v14.1h-4.8zM897.5 825a17.4 17.4 0 0 0 8.6 2.4c4.9 0 7.8-2.5 7.8-6.3s-2-5.4-7-7.4-9.8-5.2-9.8-10.5 4.8-10 12-10a17.4 17.4 0 0 1 8.2 1.8l-1.3 3.9a14.3 14.3 0 0 0-7.1-1.8c-5 0-7 3.1-7 5.6s2.3 5.2 7.4 7.1 9.5 5.5 9.5 10.9-4.3 10.7-13 10.7c-3.6 0-7.5-1-9.5-2.4zm49.9-1.4c0 2.7.1 5.2.2 7.2h-4.3l-.2-4.3h-.1a10.2 10.2 0 0 1-8.8 5c-4.2 0-9.2-2.4-9.2-11.7v-15.6h4.8V819c0 5 1.6 8.4 6 8.4a6.9 6.9 0 0 0 6.3-4.4 6.4 6.4 0 0 0 .5-2.4v-16.4h4.8z"/><path fill="#fdd31b" d="M176.3 701.8H234v57.71h-57.7zm286.6 0h57.7v57.71h-57.7z"/><path fill="#ee3354" d="M749.4 359.2h57.7v400.34h-57.7z"/><path fill="none" stroke="#89d4e5" stroke-miterlimit="10" stroke-width="7" d="M33 759.5h917.4"/></symbol><symbol id="backward" viewBox="0 0 256 256"><path d="M136.1 128l89.1 56.7V71.3zm0-56.7v113.4l-81-56.7zM30.8 79.4h24.3v97.2H30.8z"/></symbol><symbol id="pause" viewBox="0 0 256 256"><path d="M118 227.7H78.1V28.3H118zm59.9-199.4H138v199.4h39.9z"/></symbol><symbol id="power" viewBox="0 0 256 256"><path d="M143.6 128h-31.2V34.4h31.2zm32.9-79.9L167 60.6a78 78 0 1 1-78 0l-9.5-12.5a93.6 93.6 0 1 0 97 0z"/></symbol><symbol id="forward" viewBox="0 0 256 256"><path d="M119.9 128l-89.1 56.7V71.3zm0-56.7v113.4l81-56.7zm105.3 8.1h-24.3v97.2h24.3z"/></symbol><symbol id="tel" viewBox="0 0 256 256"><path d="M57.4 38.4l23.9-11.1 33.9 66.2-22.9 11.3c-4.5 10.5 18.1 52.7 27.7 53.4l22.4-11.1 34.5 66.6-23.9 11.7C87 255.5-7.4 72.1 57.4 38.4zm16.2 10.7L65 53.3c-44.4 23.2 35.1 177.8 81 156.8l8.2-3.9-19.1-36.8-8.6 4.2c-26.6 13-69.4-69-42.5-83.5l8.5-4.1zm65.7 64.2l24.5 7.3a25.5 25.5 0 0 0-17.2-31.8zm15.2-50.9a53.1 53.1 0 0 1 35.7 66l-15.1-4.5A37.2 37.2 0 0 0 150 77.5zm8-26.7a80.7 80.7 0 0 1 54.4 100.7l-15.4-4.6a64.9 64.9 0 0 0-43.6-80.7z"/></symbol><symbol id="warning" viewBox="0 0 256 256"><path d="M128 65.5l79 144.9H49zm0-38.2L18.1 228.7h219.8zm-9.2 82.4h18.4v54.9h-18.4zM128 199a11.5 11.5 0 1 1 11.4-11.5A11.5 11.5 0 0 1 128 199z"/></symbol><symbol id="stop" viewBox="0 0 256 256"><path d="M130.1 53.2v71.7c0 3.2 5.8 3.3 5.8 0V64.7c0-11.4 20.1-11.7 20.1 0v68.2c0 4.2 4.1 4.8 5.7 1.7l7.6-16.7c6.2-13 26.9-5.1 20.4 10.1-1.6 4.1-21.3 49-26.4 60.3s-15.5 23.6-34.6 23.6H95.6c-20 0-30.6-11.9-30.6-32.7V88.5c0-12.1 16.6-11.4 16.6-.6v39.8c0 3.3 6 3.3 6 0V63.8c0-12.4 18.6-12.1 18.6 0v60.4c0 3.3 5.5 3.1 5.5-.1V53.2c0-12 18.4-12.4 18.4 0zM121 27.3A26 26 0 0 0 99.8 38c-15.4-1.7-28.5 9.6-28.9 24.9-13.1 1.2-22.6 11.8-22.6 25.6v90.7c0 30.6 18.1 49.5 47.3 49.5h33.1c22.6 0 40.3-11.9 50-33.6 3.7-8.2 24.1-54.5 26.6-60.8 3.9-9.4 3.1-19.3-2.1-27.1a28.8 28.8 0 0 0-30.4-11.9V64.7c0-16.1-13.8-26.9-29.7-25.3-4.4-7.4-12.5-12.1-22.1-12.1z"/></symbol></svg>